<svg width="40" height="40" viewBox="0 0 40 40" fill="none" xmlns="http://www.w3.org/2000/svg">
<circle cx="20" cy="20" r="20" fill="#F9E7DA"/>
<path fill-rule="evenodd" clip-rule="evenodd" d="M18.5976 9.08555C15.3516 9.52716 12.5776 11.2526 10.747 13.9688C10.0436 15.0126 9.4344 16.4999 9.13805 17.8968C9.01309 18.486 8.99838 18.7133 9.00013 20.0257C9.00194 21.3202 9.01833 21.5698 9.13829 22.1246C9.65943 24.5352 10.8855 26.6698 12.6324 28.2076L13.0115 28.5413H19.9996H26.9877L27.3668 28.2076C29.1132 26.6702 30.3356 24.5426 30.8618 22.1246C30.9832 21.5671 30.999 21.3265 31 20.0257C31.0011 18.4491 30.942 17.9935 30.5798 16.7895C29.4779 13.1273 26.381 10.2197 22.6207 9.31703C21.3021 9.00045 19.8411 8.91637 18.5976 9.08555ZM19.9996 11.8324C19.9996 12.2126 19.9986 12.2149 19.8112 12.2522C19.7076 12.2728 19.5213 12.2897 19.3971 12.2897C19.0158 12.2897 18.1292 12.4661 17.5584 12.6555C15.8564 13.2203 14.3456 14.4014 13.3837 15.9191C13.1241 16.3288 12.7436 17.1498 12.5831 17.6467C12.4568 18.0377 12.4436 18.0546 12.2918 18.0182C11.8217 17.9055 11.6807 17.857 11.6807 17.808C11.6807 17.6724 12.1254 16.5299 12.3426 16.1073C13.5269 13.8037 15.7427 12.1274 18.2514 11.6372C19.103 11.4708 19.1266 11.4676 19.5927 11.4583L19.9996 11.4501V11.8324ZM25.1773 13.1827C25.2449 13.25 25.308 13.4269 25.3324 13.6175C25.4428 14.4817 26.093 15.1082 26.8793 15.1082C27.1622 15.1082 27.354 15.2741 27.354 15.5187C27.354 15.7609 27.1799 15.8875 26.7665 15.9456C25.9462 16.061 25.4374 16.5773 25.3342 17.3992C25.2866 17.7777 25.1592 17.9418 24.9126 17.9418C24.6929 17.9418 24.5208 17.7646 24.5208 17.5386C24.5208 17.2181 24.3445 16.7367 24.1439 16.5095C23.8517 16.1784 23.5439 16.0141 23.0989 15.9513C22.6474 15.8877 22.4712 15.7669 22.4712 15.5211C22.4712 15.2884 22.6819 15.1082 22.954 15.1082C23.7686 15.1082 24.5208 14.3491 24.5208 13.527C24.5208 13.1573 24.934 12.9407 25.1773 13.1827ZM12.2657 18.8486C12.2773 18.8601 12.2657 19.1229 12.2399 19.4326L12.1931 19.9957L11.9266 20.0146C11.7801 20.025 11.5939 20.017 11.5129 19.9968C11.3682 19.9607 11.3663 19.9522 11.4052 19.4981C11.4758 18.6739 11.4464 18.719 11.8747 18.7772C12.0781 18.8049 12.254 18.837 12.2657 18.8486ZM23.2548 19.1861V19.6059H23.6768H24.0988V19.9929V20.38L23.6919 20.3977L23.285 20.4155L23.2671 20.8203L23.2493 21.2251H22.863H22.4767L22.4589 20.8203L22.441 20.4155L22.0341 20.3977L21.6272 20.38V19.9929V19.6059H22.0492H22.4712V19.1861V18.7663H22.863H23.2548V19.1861ZM11.763 29.4461C11.2049 29.607 10.6925 30.1751 10.6183 30.7151L10.5792 31H19.9996H29.42L29.3809 30.7151C29.3047 30.1609 28.7916 29.6038 28.2086 29.4428C27.925 29.3644 12.0352 29.3676 11.763 29.4461Z" fill="black"/>
</svg>
