<svg width="111" height="32" viewBox="0 0 111 32" fill="none" xmlns="http://www.w3.org/2000/svg">
<path d="M20.808 7.04L17.448 21.728L13.56 7.04H10.44L6.552 21.728L3.192 7.04H1.176L4.824 23H8.184L12 8.552L15.792 23H19.152L22.8 7.04H20.808ZM27.7348 23.312C30.5188 23.312 31.7908 21.632 32.2468 20.192C32.2468 21.08 32.3188 21.968 32.4148 23H34.1668C34.0468 21.824 34.0228 20.888 34.0228 20.024V14.264C34.0228 12.104 32.5348 10.592 29.2468 10.592C25.9348 10.592 24.1348 12.224 24.0628 14.768H25.9588C26.0788 13.208 26.9668 12.104 29.3188 12.104C31.6468 12.104 32.2708 13.04 32.2708 14.264C32.2708 15.176 31.7428 15.512 30.4708 15.728L27.4228 16.232C24.8308 16.664 23.7748 17.888 23.7748 19.832C23.7748 22.112 25.4308 23.312 27.7348 23.312ZM28.1188 21.8C26.7028 21.8 25.7188 21.128 25.7188 19.76C25.7188 18.464 26.4868 17.84 28.1188 17.504L30.1108 17.096C31.0228 16.904 31.6708 16.712 32.2708 16.28V17.312C32.2708 19.592 30.9508 21.8 28.1188 21.8ZM37.1421 23H39.0621V6.2H37.1421V23ZM42.5093 23H44.4293V6.2H42.5093V23Z" fill="black"/>
<path d="M20.808 7.04V6.84H20.6486L20.613 6.9954L20.808 7.04ZM17.448 21.728L17.2547 21.7792L17.643 21.7726L17.448 21.728ZM13.56 7.04L13.7533 6.98882L13.7139 6.84H13.56V7.04ZM10.44 7.04V6.84H10.2861L10.2467 6.98882L10.44 7.04ZM6.552 21.728L6.35704 21.7726L6.74534 21.7792L6.552 21.728ZM3.192 7.04L3.38696 6.9954L3.35141 6.84H3.192V7.04ZM1.176 7.04V6.84H0.925128L0.981028 7.08456L1.176 7.04ZM4.824 23L4.62903 23.0446L4.66456 23.2H4.824V23ZM8.184 23V23.2H8.33803L8.37737 23.0511L8.184 23ZM12 8.552L12.1934 8.50123L12.0006 7.76649L11.8066 8.50093L12 8.552ZM15.792 23L15.5986 23.0508L15.6377 23.2H15.792V23ZM19.152 23V23.2H19.3114L19.347 23.0446L19.152 23ZM22.8 7.04L22.995 7.08456L23.0509 6.84H22.8V7.04ZM20.613 6.9954L17.253 21.6834L17.643 21.7726L21.003 7.0846L20.613 6.9954ZM17.6413 21.6768L13.7533 6.98882L13.3667 7.09118L17.2547 21.7792L17.6413 21.6768ZM13.56 6.84H10.44V7.24H13.56V6.84ZM10.2467 6.98882L6.35866 21.6768L6.74534 21.7792L10.6333 7.09118L10.2467 6.98882ZM6.74696 21.6834L3.38696 6.9954L2.99704 7.0846L6.35704 21.7726L6.74696 21.6834ZM3.192 6.84H1.176V7.24H3.192V6.84ZM0.981028 7.08456L4.62903 23.0446L5.01897 22.9554L1.37097 6.99543L0.981028 7.08456ZM4.824 23.2H8.184V22.8H4.824V23.2ZM8.37737 23.0511L12.1934 8.60307L11.8066 8.50093L7.99063 22.9489L8.37737 23.0511ZM11.8066 8.60277L15.5986 23.0508L15.9854 22.9492L12.1934 8.50123L11.8066 8.60277ZM15.792 23.2H19.152V22.8H15.792V23.2ZM19.347 23.0446L22.995 7.08456L22.605 6.99543L18.957 22.9554L19.347 23.0446ZM22.8 6.84H20.808V7.24H22.8V6.84ZM32.2468 20.192H32.4468L32.0561 20.1316L32.2468 20.192ZM32.4148 23L32.2157 23.0185L32.2326 23.2H32.4148V23ZM34.1668 23V23.2H34.3883L34.3658 22.9797L34.1668 23ZM24.0628 14.768L23.8629 14.7623L23.8571 14.968H24.0628V14.768ZM25.9588 14.768V14.968H26.144L26.1582 14.7833L25.9588 14.768ZM30.4708 15.728L30.5034 15.9253L30.5043 15.9252L30.4708 15.728ZM27.4228 16.232L27.3902 16.0347L27.3899 16.0347L27.4228 16.232ZM28.1188 17.504L28.0787 17.3081L28.0785 17.3081L28.1188 17.504ZM30.1108 17.096L30.1509 17.2919L30.152 17.2917L30.1108 17.096ZM32.2708 16.28H32.4708V15.8896L32.154 16.1177L32.2708 16.28ZM27.7348 23.512C29.17 23.512 30.2301 23.0778 30.9915 22.4459C31.7502 21.8164 32.2006 21.0006 32.4375 20.2524L32.0561 20.1316C31.8371 20.8234 31.4235 21.5676 30.7361 22.1381C30.0515 22.7062 29.0836 23.112 27.7348 23.112V23.512ZM32.0468 20.192C32.0468 21.0901 32.1196 21.9863 32.2157 23.0185L32.614 22.9815C32.518 21.9497 32.4468 21.0699 32.4468 20.192H32.0468ZM32.4148 23.2H34.1668V22.8H32.4148V23.2ZM34.3658 22.9797C34.2467 21.8124 34.2228 20.8835 34.2228 20.024H33.8228C33.8228 20.8925 33.847 21.8356 33.9678 23.0203L34.3658 22.9797ZM34.2228 20.024V14.264H33.8228V20.024H34.2228ZM34.2228 14.264C34.2228 13.1351 33.8319 12.1562 32.9953 11.4639C32.1641 10.776 30.9183 10.392 29.2468 10.392V10.792C30.8633 10.792 32.0055 11.164 32.7403 11.7721C33.4698 12.3758 33.8228 13.2329 33.8228 14.264H34.2228ZM29.2468 10.392C27.56 10.392 26.2314 10.8075 25.3119 11.5722C24.3885 12.3401 23.9003 13.4415 23.8629 14.7623L24.2627 14.7737C24.2974 13.5505 24.7451 12.5639 25.5677 11.8798C26.3942 11.1925 27.6216 10.792 29.2468 10.792V10.392ZM24.0628 14.968H25.9588V14.568H24.0628V14.968ZM26.1582 14.7833C26.2157 14.0366 26.4543 13.4266 26.9345 13.0006C27.4164 12.5732 28.1718 12.304 29.3188 12.304V11.904C28.1138 11.904 27.2493 12.1868 26.6691 12.7014C26.0873 13.2174 25.822 13.9394 25.7594 14.7527L26.1582 14.7833ZM29.3188 12.304C30.4622 12.304 31.1427 12.5349 31.5369 12.8762C31.9241 13.2114 32.0708 13.685 32.0708 14.264H32.4708C32.4708 13.6189 32.3055 13.0125 31.7987 12.5738C31.2989 12.1411 30.5034 11.904 29.3188 11.904V12.304ZM32.0708 14.264C32.0708 14.6751 31.9555 14.921 31.7255 15.0988C31.4767 15.2912 31.0702 15.4233 30.4373 15.5308L30.5043 15.9252C31.1434 15.8167 31.637 15.6728 31.9701 15.4152C32.3222 15.143 32.4708 14.7649 32.4708 14.264H32.0708ZM30.4382 15.5307L27.3902 16.0347L27.4554 16.4293L30.5034 15.9253L30.4382 15.5307ZM27.3899 16.0347C26.0713 16.2545 25.1126 16.6804 24.4836 17.3254C23.8503 17.9748 23.5748 18.8221 23.5748 19.832H23.9748C23.9748 18.8979 24.2273 18.1612 24.77 17.6046C25.3171 17.0436 26.1824 16.6415 27.4557 16.4293L27.3899 16.0347ZM23.5748 19.832C23.5748 21.0247 24.0103 21.9536 24.7628 22.5806C25.5104 23.2037 26.5504 23.512 27.7348 23.512V23.112C26.6152 23.112 25.6752 22.8203 25.0189 22.2734C24.3674 21.7304 23.9748 20.9193 23.9748 19.832H23.5748ZM28.1188 21.6C27.4392 21.6 26.8891 21.4384 26.5129 21.1369C26.1432 20.8407 25.9188 20.3914 25.9188 19.76H25.5188C25.5188 20.4966 25.7864 21.0673 26.2627 21.4491C26.7326 21.8256 27.3824 22 28.1188 22V21.6ZM25.9188 19.76C25.9188 19.1564 26.0951 18.7347 26.4413 18.42C26.7976 18.0961 27.3553 17.8654 28.1591 17.6999L28.0785 17.3081C27.2503 17.4786 26.608 17.7279 26.1723 18.124C25.7265 18.5293 25.5188 19.0676 25.5188 19.76H25.9188ZM28.1589 17.6999L30.1509 17.2919L30.0707 16.9001L28.0787 17.3081L28.1589 17.6999ZM30.152 17.2917C31.0691 17.0986 31.752 16.9 32.3877 16.4423L32.154 16.1177C31.5896 16.524 30.9765 16.7094 30.0696 16.9003L30.152 17.2917ZM32.0708 16.28V17.312H32.4708V16.28H32.0708ZM32.0708 17.312C32.0708 18.4161 31.7509 19.4903 31.1019 20.2844C30.4574 21.0732 29.4771 21.6 28.1188 21.6V22C29.5925 22 30.6883 21.4228 31.4117 20.5376C32.1307 19.6577 32.4708 18.4879 32.4708 17.312H32.0708ZM37.1421 23H36.9421V23.2H37.1421V23ZM39.0621 23V23.2H39.2621V23H39.0621ZM39.0621 6.2H39.2621V6H39.0621V6.2ZM37.1421 6.2V6H36.9421V6.2H37.1421ZM37.1421 23.2H39.0621V22.8H37.1421V23.2ZM39.2621 23V6.2H38.8621V23H39.2621ZM39.0621 6H37.1421V6.4H39.0621V6ZM36.9421 6.2V23H37.3421V6.2H36.9421ZM42.5093 23H42.3092V23.2H42.5093V23ZM44.4292 23V23.2H44.6292V23H44.4292ZM44.4292 6.2H44.6292V6H44.4292V6.2ZM42.5093 6.2V6H42.3092V6.2H42.5093ZM42.5093 23.2H44.4292V22.8H42.5093V23.2ZM44.6292 23V6.2H44.2293V23H44.6292ZM44.4292 6H42.5093V6.4H44.4292V6ZM42.3092 6.2V23H42.7093V6.2H42.3092Z" fill="black"/>
<path d="M57.64 7.04H50.8V23H51.808V15.704H57.4C60.856 15.704 62.224 13.832 62.224 11.36C62.224 8.768 60.856 7.04 57.64 7.04ZM57.352 14.84H51.808V7.904H57.592C59.992 7.904 61.144 8.936 61.144 11.36C61.144 13.544 59.992 14.84 57.352 14.84ZM67.8079 23.312C71.0479 23.312 72.2239 21.272 72.6559 19.976C72.6559 20.744 72.7279 21.776 72.8479 23H73.7119C73.5919 21.752 73.5199 20.336 73.5199 19.568V14.168C73.5199 12.104 72.3679 10.592 69.1039 10.592C65.9839 10.592 64.3519 12.296 64.1839 14.792H65.0959C65.2399 13.136 66.0079 11.432 69.1039 11.432C71.9839 11.432 72.6799 12.752 72.6799 14.24C72.6799 15.296 72.1519 15.608 70.6879 15.848L67.5439 16.376C65.0959 16.784 63.8959 17.936 63.8959 19.928C63.8959 22.328 65.7919 23.312 67.8079 23.312ZM67.9039 22.472C66.1999 22.472 64.9039 21.68 64.9039 19.928C64.9039 18.248 65.8879 17.48 67.8079 17.144L70.4719 16.688C71.7679 16.472 72.1759 16.256 72.6799 15.944V17.576C72.6799 19.616 71.3839 22.472 67.9039 22.472ZM82.6694 10.64C80.3894 10.64 78.7574 11.744 77.9414 13.712V11H76.9814V27.8H77.9414V20.336C78.7574 22.304 80.3894 23.408 82.6694 23.408C86.2214 23.408 87.9494 21.032 87.9494 17.024C87.9494 13.064 86.2214 10.64 82.6694 10.64ZM82.5254 22.568C79.9334 22.568 77.9414 20.984 77.9414 17C77.9414 13.016 79.9334 11.48 82.5254 11.48C85.3574 11.48 86.9414 13.28 86.9414 17.024C86.9414 20.768 85.3574 22.568 82.5254 22.568ZM100.362 19.16C100.002 21.2 98.6815 22.544 95.9695 22.544C92.9215 22.544 91.1935 20.72 91.1935 16.976V16.928H101.202C101.226 16.712 101.226 16.544 101.226 16.28C101.226 12.608 99.0895 10.616 95.9215 10.616C92.1535 10.616 90.1855 13.232 90.1855 16.976C90.1855 20.768 92.0815 23.384 95.9215 23.384C99.3775 23.384 100.938 21.32 101.25 19.16H100.362ZM95.9215 11.456C98.3215 11.456 100.17 12.656 100.218 16.112H91.2175C91.4815 12.968 93.1855 11.456 95.9215 11.456ZM109.53 10.904C107.13 10.904 105.522 12.152 104.802 14.912V11H103.842V23H104.802V18.896C104.802 15.32 105.522 11.576 109.77 11.888L110.106 11.912V10.904H109.53Z" fill="black"/>
</svg>
